<svg xmlns="http://www.w3.org/2000/svg" viewBox="0 0 500 500" xmlns:bx="https://boxy-svg.com" width="500px" height="500px"><defs><bx:guide x="290.39" y="237.574" angle="180"/><bx:guide x="340.278" y="209.637" angle="0"/><bx:guide x="382.1838780122273" y="320.0563567016358" angle="0"/><bx:export><bx:file format="svg"/></bx:export></defs><rect x="93.187" y="236.053" width="88.868" height="239.25" style="stroke: rgb(0, 0, 0); fill: rgb(255, 255, 172); stroke-width: 5px; transform-box: fill-box; transform-origin: 50% 50%;"/><g style="" transform="matrix(0.727277, 0, 0, 0.646853, 124.722832, -48.218224)"><g><path style="stroke: rgb(0, 0, 0); fill: rgb(104, 231, 255); stroke-width: 7.27733px;" d="M 300 185.99 L 300 275.703 L 337.492 310.591 L 300 350.464 L 300 435.99 L 400 363.304 L 400 263.304 L 300 185.99 Z"/></g></g><path d="M 148.857 37.554 H 196.163 L 196.163 31.054 L 216.163 40.054 L 196.163 49.054 L 196.163 42.554 H 148.857 V 37.554 Z" bx:shape="arrow 148.857 31.054 67.306 18 5 20 0 1@2d2c8990" style="stroke: rgb(0, 0, 0);" transform="matrix(0.999831, -0.018402, 0.018402, 0.999831, 118.828568, 65.140579)"/><text style="fill: rgb(51, 51, 51); font-family: Arial, sans-serif; font-size: 45px; font-style: italic; white-space: pre;" x="229.536" y="118.222">4</text><text style="fill: rgb(51, 51, 51); font-family: Arial, sans-serif; font-size: 40px; white-space: pre;" x="110.353" y="367.403">PC</text><text style="font-family: Arial, sans-serif; font-size: 20px; font-style: italic; font-weight: 700; white-space: pre;" x="343.435" y="360.49">address</text><path d="M 316.906 351.786 L 316.768 344.288 L 336.858 353.92 L 317.136 364.284 L 316.998 356.786 L 282.759 357.416 C 281.439 361.395 277.687 364.265 273.265 364.265 C 268.877 364.265 265.149 361.438 263.801 357.506 L 184.296 357.506 L 184.296 352.506 L 263.419 352.506 C 264.086 348.748 266.852 345.715 270.462 344.663 L 270.462 207.857 L 270.613 207.857 L 270.604 207.369 L 317.902 206.499 L 317.782 200 L 337.944 208.63 L 318.113 217.997 L 317.994 211.498 L 275.462 212.28 L 275.462 344.507 C 279.335 345.375 282.358 348.489 283.093 352.409 L 316.906 351.786 Z" style="stroke: rgb(0, 0, 0);"/><path d="M 68.013 353.565 L 67.893 347.066 L 88.055 355.696 L 68.224 365.063 L 68.105 358.564 L 20.807 359.434 L 20.799 358.999 L 20 359 L 20 30.009 L 20.074 30.009 L 20.074 29.131 L 477.76 29.131 L 477.76 29 L 482.76 29 L 482.76 155.199 L 477.76 155.199 L 477.76 155 L 416.108 155 L 416.108 150 L 477.76 150 L 477.76 34.179 L 25 34.179 L 25 354.016 L 24.724 354.361 L 68.013 353.565 Z" style="stroke: rgb(0, 0, 0);"/></svg>
